# xmcd
#
# Track frame offsets:
#	150
#	14248
#	28166
#	40243
#	60182
#	72858
#	93397
#	105129
#	119126
#	132282
#	151352
#	168148
#
# Disc length: 2426 seconds
#
# Revision: 1
# Processed by: cddbd v1.5.1PL0 Copyright (c) Steve Scherf et al.
# Submitted via: EasyCDDAExtractor 6.5.7.1
#
DISCID=9909780c
DTITLE=Porca Véia - Gaudério por Excelência
DYEAR=2000
DGENRE=Gaúcha
TTITLE0=Marca Borrada
TTITLE1=Lá Fora
TTITLE2=Serrana
TTITLE3=Marcha Tropeira
TTITLE4=Teatino e Chineiro
TTITLE5=Súplica
TTITLE6=Vou Deixar Saudade
TTITLE7=Minha Terra que é Lugar de Alegria
TTITLE8=Gaiteiro, Alma e Coedeona
TTITLE9=Saudade Bruaca
TTITLE10=Cavalo Baio
TTITLE11=Abandono
EXTD=
EXTT0=
EXTT1=
EXTT2=
EXTT3=
EXTT4=
EXTT5=
EXTT6=
EXTT7=
EXTT8=
EXTT9=
EXTT10=
EXTT11=
PLAYORDER=
